<?xml version="1.0"?>
<svg width="1500" height="200" xmlns="http://www.w3.org/2000/svg" xmlns:svg="http://www.w3.org/2000/svg" preserveAspectRatio="xMidYMid meet" version="1.0">
 <g class="layer">
  <title>Layer 1</title>
  <g fill="#000000" id="svg_1" transform="matrix(0.1, 0, 0, -0.1, 0, 0)">
   <path d="m6124,-65c-234,-51 -378,-239 -441,-576c-26,-136 -26,-594 0,-724c56,-279 148,-436 306,-519c169,-89 417,-87 576,4c122,70 221,217 270,402c38,145 50,257 50,478c0,221 -12,333 -50,478c-49,185 -148,332 -270,402c-111,64 -296,87 -441,55zm242,-210c173,-51 254,-284 254,-725c0,-531 -118,-761 -377,-737c-152,15 -238,114 -286,334c-19,89 -22,127 -22,403c0,276 3,314 22,403c43,194 118,299 238,328c50,12 119,10 171,-6z" fill="rgb(42, 122, 188)" id="svg_2"/>
   <path d="m10834,-65c-234,-51 -378,-239 -441,-576c-26,-136 -26,-594 0,-724c56,-279 148,-436 306,-519c169,-89 417,-87 576,4c122,70 221,217 270,402c38,145 50,257 50,478c0,221 -12,333 -50,478c-49,185 -148,332 -270,402c-111,64 -296,87 -441,55zm242,-210c173,-51 254,-284 254,-725c0,-531 -118,-761 -377,-737c-152,15 -238,114 -286,334c-19,89 -22,127 -22,403c0,276 3,314 22,403c43,194 118,299 238,328c50,12 119,10 171,-6z" fill="rgb(42, 122, 188)" id="svg_3"/>
   <path d="m805,-82c-2,-7 -6,-164 -8,-348c-4,-270 -8,-350 -22,-410c-44,-192 -130,-347 -274,-491c-106,-107 -202,-169 -338,-221l-83,-31l0,-163l0,-163l91,25c352,94 646,369 768,718c55,155 61,226 61,684l0,412l-95,0c-68,0 -97,-4 -100,-12z" fill="rgb(42, 122, 188)" id="svg_4"/>
   <path d="m1045,-82c-3,-7 -4,-422 -3,-923l3,-910l140,0l140,0l3,923l2,922l-140,0c-103,0 -142,-3 -145,-12z" fill="#23d2e2" id="svg_5"/>
   <path d="m1376,-77c-3,-4 -6,-192 -5,-417c1,-442 6,-501 55,-651c87,-264 281,-500 525,-637c85,-48 259,-111 337,-124l42,-7l0,160l0,159l-57,18c-32,10 -98,38 -148,62c-314,155 -511,445 -545,802c-5,59 -10,227 -10,375l0,267l-93,0c-52,0 -97,-3 -101,-7z" fill="rgb(42, 122, 188)" id="svg_6"/>
   <path d="m12260,-990l0,-920l568,2l567,3l3,108l3,107l-441,0l-440,0l-2,808l-3,807l-127,3l-128,3l0,-921z" fill="#23d2e2" id="svg_7"/>
   <path d="m13850,-990l0,-921l128,3l127,3l3,432l2,433l373,2l372,3l3,108l3,107l-376,0l-375,0l0,265l0,265l410,0l410,0l0,110l0,110l-540,0l-540,0l0,-920z" fill="#23d2e2" id="svg_8"/>
   <path d="m2545,-92c-3,-7 -4,-420 -3,-918l3,-905l123,-3l122,-3l0,733c0,439 4,728 9,723c5,-6 142,-334 304,-730l295,-720l161,-3l161,-2l0,920l0,920l-125,0l-125,0l-2,-731l-3,-730l-300,730l-299,731l-158,0c-118,0 -160,-3 -163,-12z" fill="rgb(42, 122, 188)" id="svg_9"/>
   <path d="m4000,-190l0,-110l285,0l285,0l2,-807l3,-808l128,-3l127,-3l0,811l0,810l285,0l285,0l0,110l0,110l-700,0l-700,0l0,-110z" fill="rgb(42, 122, 188)" id="svg_10"/>
   <path d="m7255,-92c-3,-7 -4,-420 -3,-918l3,-905l123,-3l122,-3l0,733c0,439 4,728 9,723c5,-6 142,-334 304,-730l295,-720l161,-3l161,-2l0,920l0,920l-125,0l-125,0l-2,-731l-3,-730l-300,730l-299,731l-158,0c-118,0 -160,-3 -163,-12z" fill="rgb(42, 122, 188)" id="svg_11"/>
   <path d="m8900,-190l0,-110l190,0l190,0l0,-700l0,-700l-190,0l-190,0l0,-110l0,-110l510,0l510,0l0,110l0,110l-190,0l-190,0l0,700l0,700l190,0l190,0l0,110l0,110l-510,0l-510,0l0,-110z" fill="rgb(42, 122, 188)" id="svg_12"/>
  </g>
 </g>

</svg>