<?xml version="1.0" encoding="utf-8"?>
<svg viewBox="0,0,256,256" width="50px" height="50px" xmlns="http://www.w3.org/2000/svg">
  <g fill="#339af0" fill-rule="nonzero" stroke="none" stroke-width="1" stroke-linecap="butt" stroke-linejoin="miter" stroke-miterlimit="10" stroke-dasharray="" stroke-dashoffset="0" font-family="none" font-weight="none" font-size="none" text-anchor="none" style="mix-blend-mode: normal">
    <g transform="scale(5.12,5.12)">
      <path d="M 9 4 C 6.25 4 4 6.25 4 9 L 4 41 C 4 43.75 6.25 46 9 46 L 41 46 C 43.75 46 46 43.75 46 41 L 46 9 C 46 6.25 43.75 4 41 4 L 9 4 Z M 9 6 L 41 6 C 42.668 6 44 7.332 44 9 L 44 41 C 44 42.668 42.668 44 41 44 L 9 44 C 7.332 44 6 42.668 6 41 L 6 9 C 6 7.332 7.332 6 9 6 Z"/>
      <path d="M 18.343 12.609 C 8.718 17.177 7.953 30.936 16.887 36.778 C 20.389 38.959 24.343 39.669 24.483 38.06 C 24.539 37.418 23.823 36.917 22.963 36.834 C 17.796 36.329 12.218 29.3 12.686 23.939 C 13.19 18.156 19.85 12.756 25.771 13.335 C 27.169 13.47 29.668 14.686 31.507 16.053 C 37.01 20.155 37.87 31.479 32.459 28.789 C 31.524 28.268 30.892 26.797 31.013 25.406 C 31.48 20.048 24.191 16.528 20.293 20.145 C 17.7 22.485 17.423 26.891 19.604 29.261 C 21.581 31.513 26.602 32.432 27.831 30.825 C 28.324 30.111 29.187 30.196 30.518 31.087 C 33.188 32.859 34.272 32.858 36.392 31.011 C 38.953 28.993 39.215 23.506 36.996 19.077 C 33.584 12.151 25.265 9.178 18.343 12.609 Z M 27.991 22.735 C 30.489 26.434 25.833 31.277 22.382 28.56 C 20.033 26.821 19.751 23.876 21.531 22.105 C 23.436 20.234 26.448 20.528 27.991 22.735 Z" style="fill: rgb(82, 152, 240); transform-origin: 24.569px 25.122px;" transform="matrix(0.998459, 0.055496, -0.055496, 0.998459, 0, 0)"/>
    </g>
  </g>
</svg>