<?xml version="1.0"?>
<svg width="512" height="512" xmlns="http://www.w3.org/2000/svg" xmlns:svg="http://www.w3.org/2000/svg" version="1.1" xml:space="preserve">
 <g class="layer">
  <title>Layer 1</title>
  <g id="SVGRepo_bgCarrier" stroke-width="0"/>
  <g id="SVGRepo_tracerCarrier" stroke-linecap="round" stroke-linejoin="round"/>
  <g id="SVGRepo_iconCarrier">
   <g id="svg_1">
    <path d="m452.44,23l-394.88,0c-20.2,0 -36.56,16.4 -36.56,36.64l0,395.72c0,20.24 16.36,36.64 36.56,36.64l394.88,0c20.2,0 36.56,-16.4 36.56,-36.64l0,-395.72c0,-20.24 -16.36,-36.64 -36.56,-36.64zm9.14,432.36c0,5.04 -4.11,9.16 -9.14,9.16l-394.88,0c-5.03,0 -9.14,-4.12 -9.14,-9.16l0,-395.72c0,-5.04 4.11,-9.16 9.14,-9.16l394.88,0c5.03,0 9.14,4.12 9.14,9.16l0,395.72z" fill="#2a7abc" id="svg_2" stroke="#2a7abc"/>
    <path d="m356.92,211.88c0.82,-18.41 -1.65,-36.27 -7.86,-53.68c-0.82,-2.2 -1.83,-3.02 -4.11,-2.38c-5.12,1.56 -10.42,2.75 -15.45,4.58c-13.89,5.04 -26.6,12.37 -38.94,20.34c-1.28,0.82 -3.2,1.37 -4.75,1.1c-20.2,-3.57 -40.49,-3.39 -60.79,-0.27c-2.01,0.27 -4.57,-0.18 -6.22,-1.19c-14.35,-9.34 -28.98,-18.5 -45.7,-22.9c-13.8,-3.66 -10.97,-4.4 -14.9,8.15c-4.66,15.02 -6.49,30.59 -5.48,46.35c0.09,1.1 -0.73,2.47 -1.46,3.48c-6.03,7.24 -10.69,15.21 -13.53,24.18c-5.48,17.4 -4.39,34.99 -0.91,52.49c6.86,34.35 29.98,58.44 64.17,64.4c17.64,3.11 35.83,3.39 52.38,4.76c18.46,-1.37 35.56,-1.47 52.19,-4.12c29.07,-4.67 51,-20.15 61.97,-48.27c3.84,-9.8 5.94,-20.52 7.22,-30.96c2.83,-23.08 -1.1,-44.7 -16.82,-62.93c-0.55,-0.73 -1.01,-2.02 -1.01,-3.11zm-14.99,98.84c-3.02,14.29 -11.33,24.09 -25.23,29.13c-13.44,4.95 -27.33,6.96 -41.5,7.88c-6.86,0.46 -13.71,0.09 -20.57,0.09c-18.46,0.37 -36.93,-0.37 -54.75,-5.68c-22.39,-6.69 -32.45,-20.06 -33.09,-43.51c-0.27,-8.34 0.64,-16.4 4.57,-23.91c7.77,-15.11 21.21,-20.43 37.11,-20.7c8.68,-0.09 17.46,0.64 26.23,1.47c18.37,1.65 36.56,-0.09 54.84,-1.1c8.04,-0.46 16.27,-0.64 24.13,0.73c16.91,2.93 29.71,19.79 29.98,38.75c0,5.59 -0.64,11.36 -1.74,16.85z" fill="#2a7abc" id="svg_3" stroke="#2a7abc"/>
    <path d="m202.99,279.3c-5.03,5.22 -6.76,11.82 -7.04,17.68c0,8.79 2.56,15.85 7.04,20.43c6.22,6.32 14.72,6.14 20.66,-0.27c8.96,-9.71 8.87,-27.94 0,-37.56c-5.94,-6.5 -14.63,-6.6 -20.66,-0.27z" fill="#2a7abc" id="svg_4" stroke="#2a7abc"/>
    <path d="m287.17,278.57c-10.24,9.43 -10.24,30.23 0,39.57c5.94,5.4 13.99,5.13 19.56,-0.64c5.12,-5.31 6.95,-12 7.13,-19.24c-0.18,-7.24 -2.01,-13.83 -7.22,-19.14c-5.58,-5.77 -13.62,-5.95 -19.47,-0.55z" fill="#2a7abc" id="svg_5" stroke="#2a7abc"/>
   </g>
  </g>
 </g>

</svg>